Coordinates
version=1
nRows=19
nColumns=36
inDegrees=yes

Units are S.I. units (second, meters, Newtons, ...)
If the header above contains a line with 'inDegrees', this indicates whether rotational values are in degrees (yes) or radians (no).

endheader
time	pelvis_tilt	pelvis_list	pelvis_rotation	pelvis_tx	pelvis_ty	pelvis_tz	hip_flexion_r	hip_adduction_r	hip_rotation_r	knee_angle_r	knee_angle_r_beta	ankle_angle_r	subtalar_angle_r	mtp_angle_r	hip_flexion_l	hip_adduction_l	hip_rotation_l	knee_angle_l	knee_angle_l_beta	ankle_angle_l	subtalar_angle_l	mtp_angle_l	lumbar_extension	lumbar_bending	lumbar_rotation	arm_flex_r	arm_add_r	arm_rot_r	elbow_flex_r	pro_sup_r	arm_flex_l	arm_add_l	arm_rot_l	elbow_flex_l	pro_sup_l
      1.50000000	      9.30372798	      2.97299652	     -3.53669768	      0.10355816	      1.24614358	      0.00675465	    -11.39098178	     -2.25641898	      2.04998806	      1.30470069	      0.02277132	      6.08833581	    -11.03864603	     -7.49999987	     -9.72647345	      1.36474915	      5.49730768	      5.08109131	      0.08868177	      1.24016925	    -11.46945637	     -7.49999987	    -21.13504273	     -1.73631380	      0.90316500	      3.29568765	     -4.49103154	      1.56339705	     27.99467606	     97.65438734	      3.54831710	     -3.49684627	      3.99662207	     25.03377855	     91.91943618
      1.51666670	      9.29135579	      2.95881313	     -3.52543875	      0.10009243	      1.25050540	      0.00627364	    -11.32975421	     -2.25920416	      2.12099180	      1.29096619	      0.02253161	      6.15085785	    -11.00349781	     -7.49999987	     -9.70991124	      1.32741341	      5.47772945	      5.00756037	      0.08739842	      1.23239527	    -11.47631818	     -7.49999987	    -21.06203352	     -1.74475825	      0.86863170	      3.45806453	     -4.42723030	      1.58024582	     28.08476280	     97.65515832	      3.71354055	     -3.49388192	      4.00040278	     25.06865342	     91.92466234
      1.53333330	      9.30703753	      2.93913893	     -3.63214425	      0.10004903	      1.25233335	      0.00642807	    -11.22460207	     -2.28197664	      2.14127447	      1.33653476	      0.02332693	      6.44842499	    -10.60819124	     -7.49999987	     -9.82407869	      1.31144218	      5.43765926	      4.72163911	      0.08240815	      0.86646788	    -11.56884650	     -7.49999987	    -21.15482729	     -1.77205056	      0.73598979	      3.59496486	     -4.38823363	      1.90175710	     28.55234076	     97.83434123	      3.95602028	     -3.59299080	      4.56672779	     24.84282310	     91.93509694
      1.55000000	      9.32578641	      2.88175452	     -3.74698888	      0.09940466	      1.25128663	      0.00678264	    -11.12991991	     -2.24038392	      2.33499004	      1.35861514	      0.02371231	      6.36866609	    -10.80049487	     -7.49999987	     -9.88044282	      1.25885084	      5.24491871	      4.53672585	      0.07918080	      0.84844870	    -11.40990678	     -7.49999987	    -21.26725036	     -1.78310583	      0.64656978	      3.79023309	     -4.31082180	      2.09471444	     28.78823606	     97.77529333	      4.13196144	     -3.61405810	      4.53035794	     24.87876335	     91.85731811
      1.56666670	      9.49644144	      2.83786270	     -3.81384491	      0.10035693	      1.25243434	      0.00628732	    -11.27621518	     -2.22694261	      2.36158758	      1.35984314	      0.02373374	      6.16158266	    -10.93719268	     -7.49999987	    -10.12943187	      1.22662829	      5.14376842	      4.35454945	      0.07600123	      0.69930456	    -11.21675770	     -7.49999987	    -21.56697426	     -1.79397388	      0.48388613	      4.00078343	     -4.24206861	      2.44817513	     28.92980080	     97.39981315	      4.29065487	     -3.59827180	      4.39829527	     24.94564986	     91.84231793
      1.58333330	      9.49522623	      2.75867988	     -3.87369854	      0.09786872	      1.25652581	      0.00659191	    -11.22785333	     -2.15411609	      2.25893338	      1.44150207	      0.02515896	      5.99791903	    -10.88029437	     -7.49999987	    -10.14196888	      1.16189543	      5.09485113	      4.26529033	      0.07444336	      0.56641941	    -11.17897141	     -7.49999987	    -21.69503404	     -1.74080280	      0.36443259	      4.18498591	     -4.15668925	      2.48401224	     28.97942730	     97.40793807	      4.50394219	     -3.58073332	      4.41698952	     24.95340069	     91.86391497
      1.60000000	      9.82239136	      2.64420678	     -3.98598007	      0.09861383	      1.25123806	      0.00686166	    -11.57276065	     -2.06021755	      2.30483416	      1.47014420	      0.02565886	      5.80446471	    -11.17611834	     -7.49999987	    -10.52532523	      1.07209681	      4.88356429	      4.18799307	      0.07309427	      0.65524954	    -10.94792277	     -7.49999987	    -22.17070140	     -1.67815739	      0.15718435	      4.49034001	     -4.10828735	      3.10410306	     28.95090209	     97.01480548	      4.71974432	     -3.63349092	      4.76717202	     24.96702441	     91.30564425
      1.61666670	     10.06041017	      2.51790170	     -4.14946060	      0.09758538	      1.25324359	      0.00720721	    -11.80479491	     -1.97260839	      2.16412755	      1.54454567	      0.02695741	      5.53906287	    -11.27894692	     -7.49999987	    -10.85018219	      0.97930429	      4.80011557	      4.07821138	      0.07117822	      0.53058079	    -11.00507897	     -7.49999987	    -22.55765812	     -1.60051214	     -0.00254271	      4.74870965	     -4.15771652	      4.24155668	     28.93986408	     94.10135401	      4.89509193	     -3.72231052	      5.56302684	     25.13874327	     88.67451289
      1.63333330	     10.12725458	      2.39143569	     -4.39381099	      0.09645064	      1.25389605	      0.00762891	    -11.82569275	     -1.88871122	      2.09023248	      1.62486684	      0.02835928	      5.34453282	    -11.43118613	     -7.49999987	    -10.94435665	      0.88532400	      4.55949733	      4.04599561	      0.07061594	      0.53542242	    -10.78427587	     -7.49999987	    -22.71747385	     -1.57359363	     -0.01102430	      4.83835702	     -3.89611235	      3.11998464	     28.90153516	     97.31539348	      5.01967902	     -3.58799450	      4.47169742	     25.18881441	     91.69499602
      1.65000000	     10.24713019	      2.26087410	     -4.62350739	      0.09434627	      1.25531015	      0.00805058	    -11.82767984	     -1.81351000	      1.86199067	      1.71407613	      0.02991627	      5.17312974	    -11.49388018	     -7.49999987	    -11.06299506	      0.79992809	      4.34153964	      4.08165135	      0.07123825	      0.61707303	    -10.63780640	     -7.49999987	    -23.04454981	     -1.49283307	     -0.18271100	      5.12822458	     -3.78217629	      3.25956313	     28.65415878	     97.65361466	      5.30219047	     -3.60545238	      4.52435230	     25.12566599	     92.25358842
      1.66666670	     10.37320599	      2.12795583	     -4.88646877	      0.09380943	      1.25808550	      0.00831886	    -11.87227460	     -1.74124696	      1.81100589	      1.71869732	      0.02999693	      4.83775323	    -11.65249940	     -7.49999987	    -11.22490678	      0.71449827	      4.21114191	      4.02919444	      0.07032271	      0.51759423	    -10.56158511	     -7.49999987	    -23.35151500	     -1.41761111	     -0.25849959	      5.33076963	     -3.66382012	      3.27232305	     28.35831143	     97.43065564	      5.48185316	     -3.59137542	      4.57489008	     25.13127902	     91.62047328
      1.68333330	     10.45204997	      2.02092456	     -5.08144792	      0.09180798	      1.25833959	      0.00776114	    -11.80870276	     -1.68803208	      1.58244181	      1.79298267	      0.03129345	      4.78193668	    -11.59360811	     -7.49999987	    -11.23783386	      0.65559148	      4.03120788	      4.12923753	      0.07206879	      0.56705616	    -10.51625516	     -7.49999987	    -23.66213071	     -1.33332245	     -0.33652404	      5.60876176	     -3.60392804	      3.31893548	     27.95572448	     97.49786094	      5.79463807	     -3.57756118	      4.63925745	     25.01210383	     92.12658745
      1.70000000	     10.51154815	      1.91575568	     -5.27833523	      0.08984060	      1.25711946	      0.00878827	    -11.73278179	     -1.61010225	      1.47121404	      1.88636304	      0.03292325	      4.70074946	    -11.69914241	     -7.49999987	    -11.21746103	      0.57649241	      3.89893776	      4.25126990	      0.07419866	      0.57927414	    -10.59720944	     -7.49999987	    -23.98268247	     -1.27779498	     -0.55502799	      5.95657849	     -3.52327342	      3.57931543	     27.46988914	     97.94970142	      5.99031740	     -3.63964270	      4.51788554	     25.01709481	     92.75029322
      1.71666670	     10.45801667	      1.81953592	     -5.52393925	      0.09060224	      1.25526827	      0.00854773	    -11.49991170	     -1.54651264	      1.59523770	      2.08569917	      0.03640232	      4.73036350	    -11.99339977	     -7.49999987	    -11.04905431	      0.50680944	      3.73836066	      4.51588667	      0.07881709	      0.70418078	    -10.78180123	     -7.49999987	    -24.16619779	     -1.21927686	     -0.54965320	      6.13561918	     -3.54540119	      3.81947184	     27.11834315	     97.02496358	      6.16661628	     -3.70857493	      4.97397536	     24.92914095	     91.63407640
      1.73333330	     10.48183795	      1.74702651	     -5.65866896	      0.09087770	      1.25767435	      0.00886096	    -11.39497840	     -1.49712110	      1.34165193	      2.25110437	      0.03928918	      4.97767311	    -11.70847272	     -7.49999987	    -10.93846293	      0.43605416	      3.54777860	      4.79809001	      0.08374247	      0.88315833	    -10.70502259	     -7.49999987	    -24.47357384	     -1.14766904	     -0.68335155	      6.28175334	     -3.46479779	      3.23767894	     26.73468162	     98.32388286	      6.20002104	     -3.69782549	      4.33307334	     24.94829223	     92.87265741
      1.75000000	     10.40826790	      1.68884176	     -5.81479163	      0.08948416	      1.26171359	      0.00822793	    -11.17954751	     -1.46130553	      1.35415531	      2.32305724	      0.04054500	      5.01513462	    -11.61031430	     -7.49999987	    -10.69157276	      0.38403845	      3.30448531	      5.10847603	      0.08915973	      0.92558384	    -10.69306154	     -7.49999987	    -24.64859458	     -1.10198811	     -0.70029296	      6.29180722	     -3.45176940	      2.78770310	     26.25723271	     98.21718015	      6.29023859	     -3.75813708	      4.46038818	     24.64091327	     92.52276569
      1.76666670	     10.38575035	      1.67141249	     -5.94236012	      0.08953526	      1.25513569	      0.00772691	    -11.06736748	     -1.48887039	      1.31467149	      2.32968549	      0.04066068	      5.03143165	    -11.62649847	     -7.49999987	    -10.66879078	      0.41663516	      3.32770162	      5.17569436	      0.09033291	      0.92609188	    -10.68865155	     -7.49999987	    -24.88473686	     -1.05686024	     -0.75717798	      6.06082650	     -3.56330468	      2.76454422	     26.13332802	     98.21444826	      6.17309983	     -3.84889287	      4.44161918	     24.57915796	     92.52192274
      1.78333330	     10.07511225	      1.65323277	     -6.05392881	      0.08596223	      1.26184798	      0.00715011	    -10.41141653	     -1.48687637	      1.12351402	      2.61415537	      0.04562562	      5.39491789	    -11.13022626	     -7.49999987	    -10.03453139	      0.41810049	      3.25952987	      5.58968877	      0.09755847	      1.07772234	    -10.65849064	     -7.49999987	    -24.87538344	     -0.95366304	     -0.94382663	      6.18855509	     -3.54820294	      2.04839900	     24.83367052	     98.11408146	      6.09438419	     -3.85903202	      3.90859385	     24.12553068	     92.48794161
      1.80000000	     10.09091134	      1.65472612	     -6.07832554	      0.08462937	      1.26863156	      0.00627588	    -10.19684586	     -1.51699200	      1.30042157	      2.64624676	      0.04618572	      5.26684621	    -10.95950490	     -7.49999987	     -9.87843235	      0.47439418	      3.34507716	      5.74292394	      0.10023293	      0.92522128	    -10.58807151	     -7.49999987	    -25.33191552	     -0.91001785	     -1.08150327	      5.82278463	     -3.75814587	      1.96533567	     24.56769873	     98.10595680	      5.94349023	     -4.00689307	      3.85084786	     23.98711014	     92.48271548
